<svg xmlns="http://www.w3.org/2000/svg" xml:space="preserve" width="297mm" height="210mm" version="1.1" style="shape-rendering:geometricPrecision; text-rendering:geometricPrecision; image-rendering:optimizeQuality; fill-rule:evenodd; clip-rule:evenodd"
viewBox="0 0 29700 21000"
 xmlns:xlink="http://www.w3.org/1999/xlink">
 <defs>
  <style type="text/css">
   <![CDATA[
    .fil0 {fill:black}
    .fil4 {fill:#0073FF}
    .fil10 {fill:#0168EF}
    .fil9 {fill:#22B1D8}
    .fil5 {fill:#27CEC0}
    .fil8 {fill:#82E995}
    .fil6 {fill:#B1EB87}
    .fil1 {fill:#B8469A}
    .fil2 {fill:#CB6593}
    .fil3 {fill:#D1A269}
    .fil7 {fill:#D4BE64}
   ]]>
  </style>
 </defs>
 <g id="Camada_x0020_1">
  <metadata id="CorelCorpID_0Corel-Layer"/>
  <g id="_492204136">
   <path class="fil0" d="M7821 8069c0,979 603,1565 1500,1565 446,0 823,-124 1033,-452l0 452 818 0 0 -4665 -850 0 0 1984c-193,-328 -550,-474 -997,-474 -874,-3 -1504,596 -1504,1590l0 0zm2528 0c0,559 -381,908 -838,908 -474,0 -838,-349 -838,-908 0,-569 367,-926 838,-926 457,0 838,362 838,926zm3468 361c-98,362 -345,542 -733,542 -452,0 -823,-273 -833,-757l2142 0c27,-119 39,-246 39,-386 0,-867 -591,-1355 -1463,-1355 -930,0 -1570,662 -1570,1561 0,1001 706,1602 1683,1602 737,0 1238,-308 1458,-921l-723 -286zm-1566 -781c81,-350 372,-555 721,-555 381,0 640,205 640,528l-5 27 -1356 0zm4719 781c-98,362 -345,542 -733,542 -452,0 -823,-273 -833,-757l2142 0c27,-119 39,-246 39,-386 0,-867 -591,-1355 -1463,-1355 -930,0 -1570,662 -1570,1561 0,1001 706,1602 1683,1602 737,0 1238,-308 1458,-921l-723 -286zm-1566 -781c81,-350 372,-555 721,-555 381,0 640,205 640,528l-5 27 -1356 0zm5180 1990l0 -769 -1785 0 1737 -1690 0 -704 -2748 0 0 733 1678 0 -1732 1697 0 733 2850 0zm2484 -1209c-97,362 -344,542 -732,542 -452,0 -823,-273 -833,-757l2142 0c27,-119 39,-246 39,-386 0,-867 -591,-1355 -1463,-1355 -931,0 -1571,662 -1571,1561 0,1001 706,1602 1683,1602 738,0 1238,-308 1458,-921l-723 -286zm-1565 -781c80,-350 371,-555 720,-555 381,0 640,205 640,528l-5 27 -1355 0z"/>
   <polygon class="fil1" points="5901,6476 6949,6476 6949,7089 5901,7089 "/>
   <polygon class="fil2" points="5901,7326 6949,7326 6949,7939 5901,7939 "/>
   <polygon class="fil3" points="5901,8176 6949,8176 6949,8789 5901,8789 "/>
   <polygon class="fil4" points="2103,9026 3151,9026 3151,9639 2103,9639 "/>
   <polygon class="fil5" points="3369,9026 4416,9026 4416,9639 3369,9639 "/>
   <polygon class="fil6" points="4636,9026 5684,9026 5684,9639 4636,9639 "/>
   <polygon class="fil7" points="5901,9026 6949,9026 6949,9639 5901,9639 "/>
   <polygon class="fil8" points="4636,8176 5684,8176 5684,8789 4636,8789 "/>
   <polygon class="fil9" points="3369,8176 4416,8176 4416,8789 3369,8789 "/>
   <polygon class="fil10" points="3369,7326 4416,7326 4416,7939 3369,7939 "/>
   <path class="fil0" d="M25699 7568l0 90 828 0 0 -241c0,-543 -340,-936 -909,-936 -366,0 -625,179 -760,474l0 -474 -854 0 0 3158 854 0 0 -2034c0,-323 174,-501 440,-501 244,2 401,232 401,464z"/>
  </g>
 </g>
</svg>